<svg xmlns="http://www.w3.org/2000/svg" xmlns:svgjs="http://svgjs.com/svgjs" xmlns:xlink="http://www.w3.org/1999/xlink" width="288" height="288"><svg xmlns="http://www.w3.org/2000/svg" width="288" height="288" fill="none" viewBox="0 0 24 24"><path stroke="#fefaf1" stroke-linecap="round" stroke-linejoin="round" stroke-width="1.5" d="M2 12C2 17.5228 6.47715 22 12 22C17.5228 22 22 17.5228 22 12C22 6.47715 17.5228 2 12 2C6.47715 2 2 6.47715 2 12Z" class="colorStrokecurrentColor svgStroke"/><path stroke="#fefaf1" stroke-linecap="round" stroke-linejoin="round" stroke-width="1.5" d="M13 2.04932C13 2.04932 16 5.99994 16 11.9999 16 17.9999 13 21.9506 13 21.9506M11 21.9506C11 21.9506 8 17.9999 8 11.9999 8 5.99994 11 2.04932 11 2.04932M2.62964 15.5H21.3704M2.62964 8.5H21.3704" class="colorStrokecurrentColor svgStroke"/></svg></svg>